<?xml version="1.0" encoding="utf-8"?>
<!-- Generator: Adobe Illustrator 28.0.0, SVG Export Plug-In . SVG Version: 6.00 Build 0)  -->
<svg version="1.1" id="Layer_2_00000146460950124366890040000005371211936177880985_"
	 xmlns="http://www.w3.org/2000/svg" xmlns:xlink="http://www.w3.org/1999/xlink" x="0px" y="0px" viewBox="0 0 479.1 480"
	 style="enable-background:new 0 0 479.1 480;" xml:space="preserve">
<style type="text/css">
	.st0{fill:#C5CAD1;}
</style>
<g id="Layer_1-2">
	<path class="st0" d="M240,0C107.5,0,0,107.5,0,240s107.5,240,240,240s239.1-107.5,239.1-240S372.5,0,240,0z M406,144h-48.7
		c-6.4-27.4-15.4-52.2-26.5-73.1C362.2,87.8,388.2,113.2,406,144L406,144z M320,240c0,17-1.3,32.8-3.2,48H163.2
		c-1.9-15.2-3.2-31.9-3.2-48s1.3-32.8,3.2-48h153.6C318.7,207.2,320,223,320,240L320,240z M240,432c-21.8,0-50.9-36.4-67.3-96h134.6
		C290.9,395.6,261.8,432,240,432z M172.7,144c16.4-59.6,45.5-96,67.3-96s50.9,36.4,67.3,96H172.7z M149.2,70.9
		c-11.1,20.9-20.1,45.7-26.5,73.1H74C91.8,113.2,117.8,87.8,149.2,70.9z M54.3,192h60.2c-1.7,15.5-2.6,31.6-2.6,48s0.9,32.5,2.6,48
		H54.3c-4-15.4-6.3-31.4-6.3-48S50.3,207.4,54.3,192z M74,336h48.7c6.4,27.4,15.4,52.2,26.5,73.1C117.8,392.2,91.8,366.8,74,336z
		 M330.8,409.1c11.1-20.9,20.1-45.7,26.5-73.1H406C388.2,366.8,362.2,392.2,330.8,409.1z M425.7,288h-60.2c1.7-15.5,2.6-31.6,2.6-48
		s-0.9-32.5-2.6-48h60.2c4,15.4,6.3,31.4,6.3,48S429.7,272.6,425.7,288z"/>
</g>
</svg>
